<?xml version="1.0" encoding="UTF-8"?>
<svg version="1.1" xmlns="http://www.w3.org/2000/svg" width="240" height="241">
<path d="M0 0 C3.90388969 2.11460692 6.26443304 1.95291502 10.625 0.75 C12.15042692 0.11509258 13.67086857 -0.53185999 15.1875 -1.1875 C29.47197949 -7.15745723 45.71769282 -5.9161894 60.625 -3.25 C62.40795292 -1.46704708 61.80295661 0.8813124 61.85546875 3.25390625 C61.52128643 6.87327065 60.55742745 10.23773375 59.625 13.75 C58.56023437 13.5334375 57.49546875 13.316875 56.3984375 13.09375 C43.15351415 10.50769023 30.91758125 9.71169571 17.625 12.75 C18.16769531 13.65621094 18.71039063 14.56242187 19.26953125 15.49609375 C29.62875194 33.03561712 32.51214116 51.66231569 28.52734375 71.90625 C26.98873571 76.75519654 24.67960088 81.15467337 22.28125 85.62109375 C20.86552952 88.29560343 19.68310529 90.91956835 18.625 93.75 C19.635625 94.224375 20.64625 94.69875 21.6875 95.1875 C22.25597656 95.45433594 22.82445312 95.72117187 23.41015625 95.99609375 C29.4013604 98.03542779 35.68581534 97.90557059 41.9375 97.875 C42.74767578 97.87886719 43.55785156 97.88273437 44.39257812 97.88671875 C48.64318154 97.99579197 48.64318154 97.99579197 52.625 96.75 C52.46652588 95.75347412 52.30805176 94.75694824 52.14477539 93.73022461 C51.59112404 89.84246886 51.41899191 85.99342666 51.30859375 82.06640625 C51.28781265 81.36603745 51.26703156 80.66566864 51.24562073 79.94407654 C51.18087535 77.73363894 51.12159392 75.52309515 51.0625 73.3125 C51.01924319 71.80272393 50.97562677 70.29295812 50.93164062 68.78320312 C50.82460368 65.10557533 50.72497635 61.42785344 50.625 57.75 C56.235 57.75 61.845 57.75 67.625 57.75 C67.81718308 64.53072043 67.99591972 71.31161018 68.16210938 78.09301758 C68.22056952 80.40073185 68.28272716 82.7083555 68.34863281 85.01586914 C68.44263431 88.32942202 68.52340789 91.64307148 68.6015625 94.95703125 C68.64985703 96.50871758 68.64985703 96.50871758 68.6991272 98.0917511 C68.71929901 99.0525206 68.73947083 100.0132901 68.76025391 101.00317383 C68.78246002 101.84922684 68.80466614 102.69527985 68.82754517 103.56697083 C68.625 105.75 68.625 105.75 66.625 108.75 C52.00211329 115.79064916 28.28308453 114.28488473 13.4375 109.25 C11.1617294 108.43024598 8.88977858 107.59965077 6.625 106.75 C3.64573729 105.38985482 3.64573729 105.38985482 0.91796875 106.89453125 C-0.10683594 107.44496094 -1.13164063 107.99539062 -2.1875 108.5625 C-13.97407853 114.85166294 -27.36255706 115.75726921 -40.4375 112.6875 C-46.35189601 110.70677896 -51.37429206 107.42065338 -56.375 103.75 C-57.17035156 103.17507812 -57.96570313 102.60015625 -58.78515625 102.0078125 C-70.20126013 92.88276206 -75.66760509 78.91838229 -77.375 64.75 C-78.23767421 45.43011023 -75.44308561 27.8467054 -62.375 12.75 C-46.46328981 -3.79358315 -21.24241639 -11.83329965 0 0 Z M-49.515625 20.19921875 C-59.61739979 33.31281899 -61.63655717 47.63494926 -60.375 63.75 C-59.1491796 72.1548149 -56.61829039 79.98891503 -51.375 86.75 C-50.715 86.75 -50.055 86.75 -49.375 86.75 C-48.99408203 87.64525391 -48.99408203 87.64525391 -48.60546875 88.55859375 C-44.96926144 95.03450582 -36.87543863 98.41203176 -30.0625 100.4375 C-22.70791086 101.29268478 -17.00672119 101.20402146 -10.375 97.75 C-9.715 97.42 -9.055 97.09 -8.375 96.75 C-9.7562756 93.81643373 -11.37105322 91.26331387 -13.25 88.625 C-22.63822229 74.61136088 -24.18230981 58.09636016 -21.12890625 41.76171875 C-19.09303671 33.62878914 -15.58153375 26.47836363 -10.70703125 19.6875 C-9.39132403 17.77374404 -8.36333379 15.84845279 -7.375 13.75 C-13.47320818 8.3835768 -20.4579412 8.35280034 -28.2265625 8.50390625 C-37.0127646 9.19066894 -43.78333622 13.64055987 -49.515625 20.19921875 Z M3.625 23.75 C-3.69810737 31.57814925 -6.30808149 41.87226429 -6.41015625 52.36328125 C-5.93015139 63.82486072 -3.72599041 73.76545616 3.625 82.75 C6.63604515 82.08274355 6.63604515 82.08274355 7.72265625 80.140625 C14.37101818 65.3904131 14.32460722 48.06043915 9.625 32.75 C8.1818046 29.58012439 6.56146741 26.64322008 4.625 23.75 C4.295 23.75 3.965 23.75 3.625 23.75 Z " fill="#DF6965" transform="translate(124.375,68.25)"/>
<path d="M0 0 C1.84464844 0.51046875 1.84464844 0.51046875 3.7265625 1.03125 C18.74807303 5.63411451 32.93950799 12.8616489 45 23 C45 23.66 45 24.32 45 25 C45.56589844 25.24363281 46.13179687 25.48726562 46.71484375 25.73828125 C65.33802208 36.02082245 76.84311398 62.18394201 82.74609375 81.48828125 C91.20386402 110.91625345 87.32318096 142.20424388 72.79418945 169.07739258 C69.04700832 175.84015862 65.11529792 182.17141352 60 188 C59.56333008 188.50080078 59.12666016 189.00160156 58.67675781 189.51757812 C57.21204795 191.18843234 55.73447556 192.84669028 54.25 194.5 C53.77771973 195.02948242 53.30543945 195.55896484 52.81884766 196.10449219 C50.5643133 198.56295832 49.21968204 199.92677265 46 201 C45.67 201.99 45.34 202.98 45 204 C42.84372365 205.68374977 40.72273791 207.19815726 38.4375 208.6875 C37.76783203 209.12666748 37.09816406 209.56583496 36.40820312 210.01831055 C10.11374583 226.91097061 -20.91895596 234.46093946 -51.95703125 228.4453125 C-82.7205622 221.73968625 -109.22846149 205.27745375 -127.02734375 179.0078125 C-144.33406356 151.83526586 -151.20066759 120.32134903 -144.90429688 88.44042969 C-141.35851749 72.7514686 -134.40959191 57.06020122 -125 44 C-124.34 44 -123.68 44 -123 44 C-122.78085938 43.28972656 -122.56171875 42.57945313 -122.3359375 41.84765625 C-120.69924137 38.35890923 -118.37819963 36.04941702 -115.625 33.4375 C-114.90183594 32.73463867 -114.90183594 32.73463867 -114.1640625 32.01757812 C-112.78064373 30.6736319 -111.39045285 29.33666743 -110 28 C-109.34257813 27.32582031 -108.68515625 26.65164062 -108.0078125 25.95703125 C-80.59488075 -0.76257732 -36.45257987 -10.15757282 0 0 Z M-89 23 C-89.93585938 23.64324219 -90.87171875 24.28648438 -91.8359375 24.94921875 C-113.6907908 40.59594534 -128.19690343 61.9901813 -135 88 C-135.21398437 88.77988281 -135.42796875 89.55976562 -135.6484375 90.36328125 C-142.43609451 118.84192914 -135.29693538 148.58200276 -120.24169922 173.07177734 C-115.084708 181.08001891 -108.71427706 188.37066268 -101 194 C-100.34 194 -99.68 194 -99 194 C-98.75507812 194.59296875 -98.51015625 195.1859375 -98.2578125 195.796875 C-92.24889084 206.32181853 -71.2225256 213.86943246 -60 217 C-30.35748495 224.75148654 -1.31214194 221.21761674 25.51953125 206.109375 C30.42159732 203.22439513 34.73187375 199.74488835 39 196 C39.78761719 195.34386719 40.57523438 194.68773437 41.38671875 194.01171875 C44.28080759 191.59961929 44.28080759 191.59961929 47 189 C47 188.34 47 187.68 47 187 C47.61875 186.773125 48.2375 186.54625 48.875 186.3125 C51.61410209 184.62070165 52.05024472 183.00755839 53 180 C53.66 180 54.32 180 55 180 C56.5192887 177.94592167 57.89748185 175.91100353 59.25 173.75 C59.65186523 173.11175293 60.05373047 172.47350586 60.46777344 171.81591797 C75.83153031 147.07276588 81.5949744 118.91011725 75.23242188 90.34350586 C73.5367742 82.29616046 73.5367742 82.29616046 70 75 C69.649375 73.7625 69.29875 72.525 68.9375 71.25 C61.25073855 47.45209713 39.9723109 28.00567453 18.4375 16.8125 C-14.93599678 0.16273283 -58.07852716 1.16370217 -89 23 Z " fill="#D96A61" transform="translate(150,9)"/>
<path d="M0 0 C3 0 3 0 5 1 C4.979375 2.134375 4.95875 3.26875 4.9375 4.4375 C4.91986768 9.96523287 5.31119761 15.46137372 5.73217773 20.97045898 C5.99760772 24.83973034 5.99923998 28.23989698 5 32 C4.01 32 3.02 32 2 32 C1.34 33.32 0.68 34.64 0 36 C-2 34 -2 34 -2.24291992 31.95288086 C-2.23881104 31.13182861 -2.23470215 30.31077637 -2.23046875 29.46484375 C-2.22853516 28.57345703 -2.22660156 27.68207031 -2.22460938 26.76367188 C-2.21236328 25.83103516 -2.20011719 24.89839844 -2.1875 23.9375 C-2.18685547 23.00099609 -2.18621094 22.06449219 -2.18554688 21.09960938 C-2.14019224 14.14019224 -2.14019224 14.14019224 -1 13 C-1.2784375 11.4221875 -1.2784375 11.4221875 -1.5625 9.8125 C-2.020765 5.81904785 -1.51909231 3.66369321 0 0 Z " fill="#DF6B66" transform="translate(7,99)"/>
<path d="M0 0 C0.68191406 0.06985107 1.36382812 0.13970215 2.06640625 0.21166992 C6.27397348 0.73192153 9.22358832 1.74199176 12.6875 4.1875 C12.3575 4.8475 12.0275 5.5075 11.6875 6.1875 C9.01106043 7.07964652 7.43365622 7.32290211 4.6875 7.3125 C3.6665625 7.31636719 3.6665625 7.31636719 2.625 7.3203125 C0.6875 7.1875 0.6875 7.1875 -2.3125 6.1875 C-4.15716442 6.03860253 -6.00607275 5.9395899 -7.85546875 5.87109375 C-8.92861328 5.82919922 -10.00175781 5.78730469 -11.10742188 5.74414062 C-12.22697266 5.70482422 -13.34652344 5.66550781 -14.5 5.625 C-15.63115234 5.58181641 -16.76230469 5.53863281 -17.92773438 5.49414062 C-20.72253354 5.38800901 -23.51742162 5.28595615 -26.3125 5.1875 C-26.3125 4.1975 -26.3125 3.2075 -26.3125 2.1875 C-17.3564884 -1.7929496 -9.53512476 -1.05211433 0 0 Z " fill="#E06967" transform="translate(135.3125,7.8125)"/>
<path d="M0 0 C0.85078125 0.144375 1.7015625 0.28875 2.578125 0.4375 C18.118762 2.81819333 33.51529896 2.87133529 49 0 C47 3 47 3 44.75 3.67211914 C41.81944276 4.02152773 38.95077433 4.17762656 36 4.24609375 C34.865625 4.27896484 33.73125 4.31183594 32.5625 4.34570312 C30.18759738 4.40689853 27.81259097 4.46419066 25.4375 4.51757812 C23.7359375 4.56881836 23.7359375 4.56881836 22 4.62109375 C20.96875 4.6461499 19.9375 4.67120605 18.875 4.69702148 C15.91934926 5.00849928 13.6890207 5.76454575 11 7 C11.33 7.66 11.66 8.32 12 9 C19.59 9.33 27.18 9.66 35 10 C35 10.66 35 11.32 35 12 C17.33115379 12.34234578 1.78279027 10.77804343 -15 5 C-11.13963157 3.85079179 -9.73520263 4.50591895 -6 6 C-3.01037846 6.46303903 -0.01431689 6.75044871 3 7 C3.33 6.34 3.66 5.68 4 5 C4.99 5 5.98 5 7 5 C6.67 4.34 6.34 3.68 6 3 C3.67843403 2.59270772 1.3431213 2.25561323 -1 2 C-0.67 1.34 -0.34 0.68 0 0 Z " fill="#CB6A57" transform="translate(95,227)"/>
<path d="M0 0 C0.66 0 1.32 0 2 0 C2.33 2.31 2.66 4.62 3 7 C4.65 7.33 6.3 7.66 8 8 C7.938125 9.03125 7.87625 10.0625 7.8125 11.125 C8.01247326 15.25778071 9.01089955 17.43619502 11 21 C11 21.66 11 22.32 11 23 C13.54106009 20.79038253 14.30621489 19.26011642 15 16 C16.17176518 18.12232979 17.33754785 20.24757791 18.5 22.375 C18.83386719 22.97828125 19.16773437 23.5815625 19.51171875 24.203125 C22 28.7734375 22 28.7734375 22 31 C21.01 30.67 20.02 30.34 19 30 C18.67 29.34 18.34 28.68 18 28 C17.01 28.33 16.02 28.66 15 29 C15.97996108 31.71373838 16.84966873 33.81626178 18.6875 36.0625 C19.3371875 37.0215625 19.3371875 37.0215625 20 38 C19.58203125 40.12109375 19.58203125 40.12109375 19 42 C0 14.03854875 0 14.03854875 0 0 Z " fill="#D3695C" transform="translate(7,150)"/>
<path d="M0 0 C0.66 0.33 1.32 0.66 2 1 C1.54625 2.216875 1.0925 3.43375 0.625 4.6875 C-1.89424364 12.25722732 -3.70538287 20.13323388 -2 28 C-2.33 28.66 -2.66 29.32 -3 30 C-3.09466261 31.36332016 -3.13072175 32.73105517 -3.1328125 34.09765625 C-3.13410156 34.89880859 -3.13539062 35.69996094 -3.13671875 36.52539062 C-3.13285156 37.36263672 -3.12898437 38.19988281 -3.125 39.0625 C-3.12886719 39.90361328 -3.13273438 40.74472656 -3.13671875 41.61132812 C-3.53603884 45.6242087 -3.53603884 45.6242087 -2 49 C-1.566875 48.21625 -1.13375 47.4325 -0.6875 46.625 C1 44 1 44 4 42 C4.33 46.95 4.66 51.9 5 57 C1 54 1 54 0 51 C-1.2581616 53.78887869 -1.2581616 53.78887869 -0.4375 55.75 C0.21960539 59.12939916 -0.94868465 61.78421187 -2 65 C-2.33 65 -2.66 65 -3 65 C-7.64778432 45.82224917 -9.13386184 18.26772369 0 0 Z " fill="#D16E63" transform="translate(9,85)"/>
<path d="M0 0 C5.61 0 11.22 0 17 0 C17.19218308 6.78072043 17.37091972 13.56161018 17.53710938 20.34301758 C17.59556952 22.65073185 17.65772716 24.9583555 17.72363281 27.26586914 C17.81763431 30.57942202 17.89840789 33.89307148 17.9765625 37.20703125 C18.00875885 38.2414888 18.0409552 39.27594635 18.0741272 40.3417511 C18.10438492 41.78290535 18.10438492 41.78290535 18.13525391 43.25317383 C18.15746002 44.09922684 18.17966614 44.94527985 18.20254517 45.81697083 C18 48 18 48 16 51 C9.37517 54.18973296 1.71931999 54.40747273 -5.5 54.8125 C-6.38478027 54.8655127 -7.26956055 54.91852539 -8.18115234 54.97314453 C-9.43726318 55.02704346 -9.43726318 55.02704346 -10.71875 55.08203125 C-11.47091797 55.11530518 -12.22308594 55.1485791 -12.99804688 55.18286133 C-15 55 -15 55 -18 53 C-11.07 53 -4.14 53 3 53 C3.33 52.34 3.66 51.68 4 51 C9.445 50.505 9.445 50.505 15 50 C15 33.83 15 17.66 15 1 C10.71 1 6.42 1 2 1 C2 1.99 2 2.98 2 4 C1.34 4 0.68 4 0 4 C0 2.68 0 1.36 0 0 Z " fill="#C66150" transform="translate(175,126)"/>
<path d="M0 0 C0 4.07237871 -1.64036058 5.4989147 -4.0625 8.75 C-8.44262476 14.79580601 -11.5992413 21.06230065 -14.58984375 27.8828125 C-16 31 -16 31 -18 34 C-17.67 28.39 -17.34 22.78 -17 17 C-17.66 17 -18.32 17 -19 17 C-19.11214844 17.71542969 -19.22429688 18.43085937 -19.33984375 19.16796875 C-20.04456005 22.19115998 -21.13287798 24.56322688 -22.5625 27.3125 C-23.01753906 28.19550781 -23.47257812 29.07851562 -23.94140625 29.98828125 C-24.46541016 30.98408203 -24.46541016 30.98408203 -25 32 C-26.37332248 27.88003257 -25.10162879 26.24632176 -23.375 22.3125 C-23.10155762 21.68907715 -22.82811523 21.0656543 -22.54638672 20.42333984 C-20.40424559 15.64662562 -17.93877987 11.3217351 -15 7 C-13.84058962 10.47823115 -14.29179116 12.45895578 -15 16 C-14.01 16 -13.02 16 -12 16 C-10.93224776 14.03533587 -9.93446535 12.03144641 -9 10 C-9.33 9.34 -9.66 8.68 -10 8 C-9.443125 7.773125 -8.88625 7.54625 -8.3125 7.3125 C-5.36305245 5.63848923 -3.3247731 3.45043651 -1 1 C-0.67 0.67 -0.34 0.34 0 0 Z " fill="#D26A5B" transform="translate(36,53)"/>
<path d="M0 0 C1.0625 1.875 1.0625 1.875 2 4 C1.67 4.66 1.34 5.32 1 6 C0.34 6 -0.32 6 -1 6 C-1.474375 6.639375 -1.94875 7.27875 -2.4375 7.9375 C-4 10 -4 10 -7 11 C-8.34919532 12.65385233 -9.68133728 14.321702 -11 16 C-14.51724138 19 -14.51724138 19 -17 19 C-17.66 20.32 -18.32 21.64 -19 23 C-19.99 22.01 -20.98 21.02 -22 20 C-21.505 18.515 -21.505 18.515 -21 17 C-20.34 17 -19.68 17 -19 17 C-18.773125 16.46375 -18.54625 15.9275 -18.3125 15.375 C-16.54429911 12.17539839 -14.46329797 9.70962777 -12 7 C-11.34 7 -10.68 7 -10 7 C-10 6.01 -10 5.02 -10 4 C-6.66666667 2.66666667 -3.33333333 1.33333333 0 0 Z " fill="#E06A66" transform="translate(56,28)"/>
<path d="M0 0 C1.65 0 3.3 0 5 0 C5.33 0.66 5.66 1.32 6 2 C5.01 2.495 5.01 2.495 4 3 C4 3.99 4 4.98 4 6 C3.01 6 2.02 6 1 6 C1.66 6.66 2.32 7.32 3 8 C2.690625 8.886875 2.38125 9.77375 2.0625 10.6875 C0.9292382 13.8534788 0.9292382 13.8534788 0.6875 16.6875 C0 19 0 19 -2.4375 20.875 C-3.7059375 21.431875 -3.7059375 21.431875 -5 22 C-5.66 21.67 -6.32 21.34 -7 21 C-7.47266289 13.67372525 -6.09866202 8.62615673 -3 2 C-2.01 2 -1.02 2 0 2 C0 1.34 0 0.68 0 0 Z " fill="#DD6A64" transform="translate(223,158)"/>
<path d="M0 0 C0.66 0.66 1.32 1.32 2 2 C1.67 2.66 1.34 3.32 1 4 C0.34 4 -0.32 4 -1 4 C-1 4.66 -1 5.32 -1 6 C-3.97 6 -6.94 6 -10 6 C-10 6.66 -10 7.32 -10 8 C-14.455 8.495 -14.455 8.495 -19 9 C-19.66 7.68 -20.32 6.36 -21 5 C-20.67 4.01 -20.34 3.02 -20 2 C-14.05997105 -0.58322189 -6.34274078 -0.73727585 0 0 Z " fill="#DF6966" transform="translate(106,9)"/>
<path d="M0 0 C0.33 0 0.66 0 1 0 C1.94450945 7.51248284 1.94450945 14.48751716 1 22 C1.99 21.67 2.98 21.34 4 21 C4 21.66 4 22.32 4 23 C4.66 23 5.32 23 6 23 C6 23.66 6 24.32 6 25 C5.34 25.33 4.68 25.66 4 26 C4.04640625 26.61488281 4.0928125 27.22976562 4.140625 27.86328125 C4.19476563 29.07564453 4.19476563 29.07564453 4.25 30.3125 C4.29640625 31.11300781 4.3428125 31.91351563 4.390625 32.73828125 C4 35 4 35 2.59375 36.75 C-1.40454656 38.67688991 -5.36358482 38.57411408 -9.75 38.6875 C-10.63816406 38.72166016 -11.52632812 38.75582031 -12.44140625 38.79101562 C-14.62747803 38.87328714 -16.81315951 38.94250172 -19 39 C-19.33 38.34 -19.66 37.68 -20 37 C-16.18788421 35.0939421 -11.35063774 35.58204798 -7.12109375 35.39453125 C-2.92637012 35.2895814 -2.92637012 35.2895814 1 34 C0.75443359 32.69869141 0.75443359 32.69869141 0.50390625 31.37109375 C-0.3620745 25.30922852 -0.10413803 19.17047816 -0.0625 13.0625 C-0.05798828 11.80630859 -0.05347656 10.55011719 -0.04882812 9.25585938 C-0.03709681 6.17052337 -0.020681 3.08528684 0 0 Z " fill="#CD685A" transform="translate(176,131)"/>
<path d="M0 0 C2.97 0.495 2.97 0.495 6 1 C5.5236925 5.28676746 3.01914242 7.11809132 0 10 C-0.86465706 11.07497905 -1.71896572 12.1583674 -2.5625 13.25 C-5.66756757 16.75315315 -5.66756757 16.75315315 -9 17 C-9.93065133 14.39417629 -10.14917407 13.35801776 -9.0625 10.75 C-8.711875 10.1725 -8.36125 9.595 -8 9 C-7.34 9 -6.68 9 -6 9 C-6 8.34 -6 7.68 -6 7 C-4.68 7 -3.36 7 -2 7 C-1.855625 6.21625 -1.71125 5.4325 -1.5625 4.625 C-1 2 -1 2 0 0 Z " fill="#E06A68" transform="translate(206,188)"/>
<path d="M0 0 C0.66 0 1.32 0 2 0 C2.6875 1.75 2.6875 1.75 3 4 C2.54625 4.598125 2.0925 5.19625 1.625 5.8125 C-0.56251452 8.75723108 -0.65426745 11.40438147 -1 15 C-1.66 15 -2.32 15 -3 15 C-3.02894547 18.45831586 -3.04678 21.91660072 -3.0625 25.375 C-3.07087891 26.35984375 -3.07925781 27.3446875 -3.08789062 28.359375 C-3.09111328 29.30039063 -3.09433594 30.24140625 -3.09765625 31.2109375 C-3.10289307 32.08024902 -3.10812988 32.94956055 -3.11352539 33.84521484 C-3.14122351 36.05049994 -3.14122351 36.05049994 -2 38 C-1.960008 39.99960012 -1.95653201 42.00047242 -2 44 C-2.66 44 -3.32 44 -4 44 C-7.74709171 28.87780847 -6.46270109 14.1802956 0 0 Z " fill="#CE6B59" transform="translate(107,97)"/>
<path d="M0 0 C-0.33 0.66 -0.66 1.32 -1 2 C0.65 2 2.3 2 4 2 C4 1.34 4 0.68 4 0 C9.445 -0.99 9.445 -0.99 15 -2 C12.18325562 0.81674438 8.75630301 1.95472774 5.125 3.4375 C4.36356689 3.74880859 3.60213379 4.06011719 2.81762695 4.38085938 C-13.88092088 11.05395663 -13.88092088 11.05395663 -20 9 C-19.01 9 -18.02 9 -17 9 C-16.67 8.01 -16.34 7.02 -16 6 C-15.24074219 5.95101562 -14.48148438 5.90203125 -13.69921875 5.8515625 C-12.70535156 5.77679688 -11.71148437 5.70203125 -10.6875 5.625 C-9.70136719 5.55539063 -8.71523437 5.48578125 -7.69921875 5.4140625 C-4.78471567 5.16134528 -4.78471567 5.16134528 -2 3 C-2 2.34 -2 1.68 -2 1 C-2.99 1.33 -3.98 1.66 -5 2 C-5.33 1.67 -5.66 1.34 -6 1 C-7.51469448 0.76807135 -9.03754562 0.58784762 -10.5625 0.4375 C-11.38878906 0.35371094 -12.21507812 0.26992187 -13.06640625 0.18359375 C-13.70449219 0.12300781 -14.34257812 0.06242188 -15 0 C-15 -0.33 -15 -0.66 -15 -1 C-8.62104794 -2.77774074 -5.99152893 -3.09906669 0 0 Z " fill="#CE6859" transform="translate(160,227)"/>
<path d="M0 0 C3.08153302 1.26886654 4.32888012 3.11667304 6.125 5.875 C6.125 7.195 6.125 8.515 6.125 9.875 C7.445 10.205 8.765 10.535 10.125 10.875 C9.795 12.855 9.465 14.835 9.125 16.875 C6.95625748 16.36896008 5.12532373 15.87516187 3.125 14.875 C2.10970459 12.54828135 1.11011802 10.2146553 0.125 7.875 C-0.535 7.215 -1.195 6.555 -1.875 5.875 C-1.875 4.555 -1.875 3.235 -1.875 1.875 C-2.535 1.545 -3.195 1.215 -3.875 0.875 C-1.875 -0.125 -1.875 -0.125 0 0 Z " fill="#E16969" transform="translate(23.875,177.125)"/>
<path d="M0 0 C2 2 2 2 2 4 C0.9375 5.5625 0.9375 5.5625 -1 7 C-3.32817964 7.36760731 -5.6618385 7.70241581 -8 8 C-8.66 8.66 -9.32 9.32 -10 10 C-13.625 9.625 -13.625 9.625 -17 9 C-17 8.01 -17 7.02 -17 6 C-4.81313081 0.12341361 -4.81313081 0.12341361 0 0 Z " fill="#E06A67" transform="translate(81,15)"/>
<path d="M0 0 C0.495 0.99 0.495 0.99 1 2 C-0.5625 4.9375 -0.5625 4.9375 -3 8 C-6.75 8.875 -6.75 8.875 -10 9 C-10.33 9.99 -10.66 10.98 -11 12 C-14.0625 13.1875 -14.0625 13.1875 -17 14 C-17 14.66 -17 15.32 -17 16 C-22.31096931 20.3577184 -28.14962013 22 -35 22 C-32.70710821 19.70710821 -30.32471168 18.73124424 -27.38745117 17.4362793 C-18.61386162 13.56309975 -11.44135553 9.09493902 -4 3 C-2.67177361 1.99322672 -1.34042343 0.99047605 0 0 Z " fill="#CA6657" transform="translate(192,202)"/>
<path d="M0 0 C0 6.75560829 -7.33808624 12.61527701 -11.6875 17.4375 C-12.40063354 18.23595337 -12.40063354 18.23595337 -13.12817383 19.05053711 C-15.39681826 21.52334753 -16.76212889 22.92070963 -20 24 C-20.33 24.99 -20.66 25.98 -21 27 C-24.0625 28.6875 -24.0625 28.6875 -27 30 C-27 28.35 -27 26.7 -27 25 C-26.236875 24.9175 -25.47375 24.835 -24.6875 24.75 C-21.40264129 23.83329524 -20.90114438 22.7277289 -19 20 C-17.66666667 19.33333333 -16.33333333 18.66666667 -15 18 C-14.67 17.01 -14.34 16.02 -14 15 C-13.34 15 -12.68 15 -12 15 C-11.731875 14.360625 -11.46375 13.72125 -11.1875 13.0625 C-10 11 -10 11 -7 10 C-5.87483915 8.16715557 -5.87483915 8.16715557 -5 6 C-3.57196269 2.76311542 -3.10515402 2.07010268 0 0 Z " fill="#C96858" transform="translate(216,186)"/>
<path d="M0 0 C7.73919551 7.25549579 13.70269485 15.28974316 18 25 C17.01 25 16.02 25 15 25 C12 19.25 12 19.25 12 17 C11.34 17 10.68 17 10 17 C9.5875 16.0925 9.175 15.185 8.75 14.25 C7.10949282 11.20334382 5.55281639 9.28873194 3 7 C2.566875 7.928125 2.566875 7.928125 2.125 8.875 C1 11 1 11 -1 13 C-2.65 10.69 -4.3 8.38 -6 6 C-3.525 6.495 -3.525 6.495 -1 7 C-0.31292445 4.50935112 0 2.62113708 0 0 Z " fill="#CB6A58" transform="translate(205,43)"/>
<path d="M0 0 C-3.38646962 1.12882321 -5.55190292 0.74321154 -9 0 C-17.5597037 -0.45440402 -25.6467566 0.09068722 -34 2 C-32.02 4.97 -32.02 4.97 -30 8 C-30.33 8.66 -30.66 9.32 -31 10 C-34.93846154 5.69230769 -34.93846154 5.69230769 -35.25 2.1875 C-35.1675 1.465625 -35.085 0.74375 -35 0 C-22.82164998 -3.78882001 -11.4526488 -6.6633593 0 0 Z " fill="#C86C57" transform="translate(176,79)"/>
<path d="M0 0 C1.43836751 0.11458693 2.87570966 0.24209116 4.3125 0.375 C5.51326172 0.47941406 5.51326172 0.47941406 6.73828125 0.5859375 C9 1 9 1 12 3 C12.33 2.34 12.66 1.68 13 1 C13.66 1 14.32 1 15 1 C15.2475 1.61875 15.495 2.2375 15.75 2.875 C17.20628639 5.35068687 18.37812506 5.95125002 21 7 C21 7.66 21 8.32 21 9 C21.99 8.67 22.98 8.34 24 8 C24.33 8.66 24.66 9.32 25 10 C25.7425 10.268125 26.485 10.53625 27.25 10.8125 C30.65439331 12.28257893 32.57308829 14.22638662 35 17 C35 17.66 35 18.32 35 19 C31.62076079 17.44095989 28.72682156 15.45221601 25.6875 13.3125 C18.81626721 8.67251623 11.55625644 5.36035443 4 2 C2.66155857 1.34364891 1.32528676 0.68252268 0 0 Z " fill="#CD6756" transform="translate(154,20)"/>
<path d="M0 0 C0.66 0.33 1.32 0.66 2 1 C1.54625 2.216875 1.0925 3.43375 0.625 4.6875 C-1.89424364 12.25722732 -3.70538287 20.13323388 -2 28 C-2.33 28.66 -2.66 29.32 -3 30 C-3.06012552 31.4141163 -3.06051374 32.83108854 -3.02734375 34.24609375 C-3.01509766 35.08333984 -3.00285156 35.92058594 -2.99023438 36.78320312 C-2.95515407 38.54891173 -2.91610863 40.31454614 -2.87304688 42.08007812 C-2.86208984 42.91861328 -2.85113281 43.75714844 -2.83984375 44.62109375 C-2.82300537 45.3886499 -2.80616699 46.15620605 -2.78881836 46.94702148 C-3 49 -3 49 -5 52 C-7.17410481 35.84472888 -7.46841539 14.93683078 0 0 Z " fill="#C06454" transform="translate(9,85)"/>
<path d="M0 0 C3 2 3 2 5 5.125 C5.66 6.07375 6.32 7.0225 7 8 C7.99 8 8.98 8 10 8 C10.33 9.32 10.66 10.64 11 12 C12.32 12 13.64 12 15 12 C14.67 13.32 14.34 14.64 14 16 C11.36 15.67 8.72 15.34 6 15 C5.896875 14.21625 5.79375 13.4325 5.6875 12.625 C5.22404978 9.66954819 5.22404978 9.66954819 2 8 C2 7.34 2 6.68 2 6 C1.34 6 0.68 6 0 6 C-1.125 2.25 -1.125 2.25 0 0 Z " fill="#E16966" transform="translate(38,197)"/>
<path d="M0 0 C1 1 1 1 1.09765625 2.84765625 C1.06510417 4.8984375 1.03255208 6.94921875 1 9 C0.67 9 0.34 9 0 9 C-0.495 6.525 -0.495 6.525 -1 4 C-3.64 3.67 -6.28 3.34 -9 3 C-8.67 2.34 -8.34 1.68 -8 1 C-20.87 0.505 -20.87 0.505 -34 0 C-34 -0.33 -34 -0.66 -34 -1 C-22.49591499 -2.73646566 -11.41997714 -2.04247633 0 0 Z " fill="#C26755" transform="translate(185,65)"/>
<path d="M0 0 C-1.8125 0.625 -1.8125 0.625 -4 1 C-4.99 0.34 -5.98 -0.32 -7 -1 C-9.0492094 -1.45139459 -9.0492094 -1.45139459 -11.1875 -1.625 C-12.445625 -1.74875 -13.70375 -1.8725 -15 -2 C-15 -2.66 -15 -3.32 -15 -4 C-15.83978394 -3.98428955 -15.83978394 -3.98428955 -16.6965332 -3.96826172 C-19.23514307 -3.92666674 -21.7736812 -3.90066315 -24.3125 -3.875 C-25.63411133 -3.84986328 -25.63411133 -3.84986328 -26.98242188 -3.82421875 C-27.82998047 -3.81777344 -28.67753906 -3.81132813 -29.55078125 -3.8046875 C-30.33106689 -3.79421387 -31.11135254 -3.78374023 -31.9152832 -3.77294922 C-34 -4 -34 -4 -37 -6 C-24.21867755 -8.83014997 -11.31857049 -6.43604988 0 0 Z " fill="#C76854" transform="translate(128,70)"/>
<path d="M0 0 C1.216875 0.4125 2.43375 0.825 3.6875 1.25 C9.75757149 3.27658936 15.87841551 5.13608633 22 7 C21.01 7.495 21.01 7.495 20 8 C20 8.66 20 9.32 20 10 C14.54520815 9.43179252 10.08940744 8.05362055 5 6 C5 5.01 5 4.02 5 3 C3.35 2.67 1.7 2.34 0 2 C0 1.34 0 0.68 0 0 Z " fill="#D46E61" transform="translate(72,219)"/>
<path d="M0 0 C0.66 0 1.32 0 2 0 C2.99829798 4.99148991 3.21845091 8.35181715 1 13 C-1.125 14.875 -1.125 14.875 -3 16 C-4.1875 14.4375 -4.1875 14.4375 -5 12 C-3.75 8.5625 -3.75 8.5625 -2 5 C-1.32723284 3.3357865 -0.65793165 1.67013418 0 0 Z " fill="#E16967" transform="translate(17,70)"/>
<path d="M0 0 C9.05628811 2.38323371 16.74461803 8.28486672 24 14 C22.140625 14.58203125 22.140625 14.58203125 20 15 C17.75 13.6875 17.75 13.6875 16 12 C16 11.34 16 10.68 16 10 C14.35 10.33 12.7 10.66 11 11 C11 10.01 11 9.02 11 8 C10.34 7.67 9.68 7.34 9 7 C9 6.34 9 5.68 9 5 C8.01 5.33 7.02 5.66 6 6 C5.01 5.34 4.02 4.68 3 4 C3 3.34 3 2.68 3 2 C2.01 2 1.02 2 0 2 C0 1.34 0 0.68 0 0 Z " fill="#CD6A57" transform="translate(169,17)"/>
<path d="M0 0 C0.66 0 1.32 0 2 0 C3.08209949 3.24629847 2.78140875 3.87436498 2 7 C2.33 7.99 2.66 8.98 3 10 C-0.27680666 13.27680666 -3.47738679 14.24623113 -8 15 C-6.43761402 11.54630469 -4.81072436 8.64429408 -2.3125 5.8125 C0.3175527 3.22064191 0.3175527 3.22064191 0 0 Z " fill="#D3685C" transform="translate(116,81)"/>
<path d="M0 0 C0.99 0.99 1.98 1.98 3 3 C2.39414062 3.46148437 1.78828125 3.92296875 1.1640625 4.3984375 C-5.38253221 9.49470969 -11.24769015 15.02738892 -17 21 C-17.33 20.01 -17.66 19.02 -18 18 C-14.9625 13.275 -14.9625 13.275 -11.8125 12.375 C-11.214375 12.25125 -10.61625 12.1275 -10 12 C-9.67 11.01 -9.34 10.02 -9 9 C-8.34 9 -7.68 9 -7 9 C-6.67 8.01 -6.34 7.02 -6 6 C-5.01 6 -4.02 6 -3 6 C-2.690625 5.38125 -2.38125 4.7625 -2.0625 4.125 C-1.375 2.75 -0.6875 1.375 0 0 Z " fill="#CB6656" transform="translate(55,32)"/>
<path d="M0 0 C0.66 0.33 1.32 0.66 2 1 C2 2.98 2 4.96 2 7 C-3.12583611 7.10251672 -7.94997778 7.03590199 -13 6 C-10.28505068 3.28505068 -7.78527931 3.23368715 -4.09375 2.5625 C-1.8002393 2.1331915 -1.8002393 2.1331915 0 0 Z " fill="#DB6C64" transform="translate(137,231)"/>
<path d="M0 0 C0 2 0 2 -2.25 4.3125 C-3.1575 5.199375 -4.065 6.08625 -5 7 C-5.66 7.86625 -6.32 8.7325 -7 9.625 C-9 12 -9 12 -11.5625 13.5 C-14.43712311 15.26899884 -15.35893278 17.10859584 -17 20 C-17.66 20 -18.32 20 -19 20 C-17.5882951 15.42441531 -15.02183524 12.66002396 -11.625 9.4375 C-10.90183594 8.73463867 -10.90183594 8.73463867 -10.1640625 8.01757812 C-8.78064373 6.6736319 -7.39045285 5.33666743 -6 4 C-5.26523437 3.22785156 -4.53046875 2.45570312 -3.7734375 1.66015625 C-2 0 -2 0 0 0 Z " fill="#CC6250" transform="translate(46,33)"/>
<path d="M0 0 C2.475 0.99 2.475 0.99 5 2 C5 3.66666667 5 5.33333333 5 7 C5.66 7 6.32 7 7 7 C7.33 7.99 7.66 8.98 8 10 C6 13 6 13 3.8359375 13.73046875 C2.61777344 13.95669922 2.61777344 13.95669922 1.375 14.1875 C0.55773437 14.34605469 -0.25953125 14.50460938 -1.1015625 14.66796875 C-1.72804688 14.77753906 -2.35453125 14.88710937 -3 15 C-3.33 14.34 -3.66 13.68 -4 13 C-1.03 12.01 1.94 11.02 5 10 C4.175 8.906875 3.35 7.81375 2.5 6.6875 C0 3.375 0 3.375 0 0 Z " fill="#C86A57" transform="translate(111,155)"/>
<path d="M0 0 C0.33 0 0.66 0 1 0 C1 6.93 1 13.86 1 21 C-2.14554899 16.80593468 -2.44197759 15.02220173 -3 10 C-3.33 9.34 -3.66 8.68 -4 8 C-3.34 8 -2.68 8 -2 8 C-1.855625 6.865625 -1.71125 5.73125 -1.5625 4.5625 C-1 1 -1 1 0 0 Z " fill="#D06D59" transform="translate(118,110)"/>
<path d="M0 0 C1.81293089 0.14037521 3.6253443 0.28744889 5.4375 0.4375 C6.95150391 0.55931641 6.95150391 0.55931641 8.49609375 0.68359375 C11 1 11 1 12 2 C14.53049402 2.07313567 17.03304837 2.09247527 19.5625 2.0625 C20.62887695 2.05573242 20.62887695 2.05573242 21.71679688 2.04882812 C23.47790013 2.03700864 25.23896036 2.01907263 27 2 C27.33 2.66 27.66 3.32 28 4 C25.02026385 4.08184423 22.04283168 4.14089764 19.0625 4.1875 C17.81629883 4.22520508 17.81629883 4.22520508 16.54492188 4.26367188 C10.49797101 4.33425885 5.60483651 3.25464398 0 1 C0 0.67 0 0.34 0 0 Z " fill="#CC6353" transform="translate(81,178)"/>
<path d="M0 0 C0 3.49567338 -0.59188682 4.13623833 -2.6875 6.8125 C-3.23019531 7.50988281 -3.77289063 8.20726562 -4.33203125 8.92578125 C-6.52097073 11.64785821 -8.73770135 14.33847218 -11 17 C-11.6875 15.1875 -11.6875 15.1875 -12 13 C-10.6875 11.25 -10.6875 11.25 -9 10 C-8.34 10 -7.68 10 -7 10 C-6.71125 9.4225 -6.4225 8.845 -6.125 8.25 C-5.568125 7.13625 -5.568125 7.13625 -5 6 C-4.5359375 4.948125 -4.5359375 4.948125 -4.0625 3.875 C-3 2 -3 2 0 0 Z " fill="#CB6955" transform="translate(216,186)"/>
<path d="M0 0 C0.66 0 1.32 0 2 0 C2.103125 0.639375 2.20625 1.27875 2.3125 1.9375 C2.539375 2.618125 2.76625 3.29875 3 4 C3.99 4.33 4.98 4.66 6 5 C6.6875 7.0625 6.6875 7.0625 7 9 C5.02 9.99 5.02 9.99 3 11 C2.30034557 9.73581754 1.61565237 8.46334598 0.9375 7.1875 C0.55464844 6.47980469 0.17179688 5.77210938 -0.22265625 5.04296875 C-1 3 -1 3 0 0 Z " fill="#E56967" transform="translate(15,162)"/>
<path d="M0 0 C0.99 0.33 1.98 0.66 3 1 C2.67386719 1.47308594 2.34773438 1.94617188 2.01171875 2.43359375 C-1.28545186 7.42311741 -3.36458649 12.25610865 -5 18 C-5.33 18 -5.66 18 -6 18 C-6.21724852 11.69979291 -6.30192768 6.57274271 -1.875 1.625 C-0.946875 0.820625 -0.946875 0.820625 0 0 Z " fill="#CA6B58" transform="translate(125,92)"/>
<path d="M0 0 C2.375 0.6875 2.375 0.6875 5 2 C6.125 4.375 6.125 4.375 7 7 C7.8353125 8.0209375 7.8353125 8.0209375 8.6875 9.0625 C9.120625 9.701875 9.55375 10.34125 10 11 C9.58203125 13.12109375 9.58203125 13.12109375 9 15 C7.49726004 12.68923915 5.99770448 10.37652089 4.5 8.0625 C4.07074219 7.40314453 3.64148438 6.74378906 3.19921875 6.06445312 C0 1.11328125 0 1.11328125 0 0 Z " fill="#CA6954" transform="translate(17,177)"/>
<path d="M0 0 C0.6875 1.625 0.6875 1.625 1 4 C-0.125 6.625 -0.125 6.625 -2 10 C-2.90225311 11.78844237 -3.79775555 13.5803018 -4.6875 15.375 C-5.45833333 16.91666667 -6.22916667 18.45833333 -7 20 C-8.34593385 15.96219844 -6.85563885 13.67517724 -5.1875 10 C-4.91357422 9.3709375 -4.63964844 8.741875 -4.35742188 8.09375 C-3.08220534 5.20692888 -1.75517209 2.63275813 0 0 Z " fill="#C46854" transform="translate(18,65)"/>
<path d="M0 0 C-1.43457328 0.9834496 -2.87277406 1.96160921 -4.3125 2.9375 C-5.11300781 3.48277344 -5.91351563 4.02804688 -6.73828125 4.58984375 C-9 6 -9 6 -12 7 C-12 6.34 -12 5.68 -12 5 C-11.34 5 -10.68 5 -10 5 C-9.67 3.35 -9.34 1.7 -9 0 C-2.25 -1.125 -2.25 -1.125 0 0 Z " fill="#CD6A58" transform="translate(187,218)"/>
<path d="M0 0 C6.88490225 -0.57374185 11.02667877 0.5246131 17 4 C12.97111077 5.22244075 10.98043171 4.37784175 7 3 C4.3360215 2.55760646 1.68839835 2.27811017 -1 2 C-0.67 1.34 -0.34 0.68 0 0 Z " fill="#D76157" transform="translate(159,75)"/>
<path d="M0 0 C3.49803111 0.64778354 5.97945576 2.17177585 9 4 C9.66 4 10.32 4 11 4 C11 4.99 11 5.98 11 7 C11.99 7.33 12.98 7.66 14 8 C13.67 8.66 13.34 9.32 13 10 C11.38991848 9.09376275 9.78714075 8.17454201 8.1875 7.25 C6.84751953 6.48429688 6.84751953 6.48429688 5.48046875 5.703125 C3.02069389 4.01420872 1.62165166 2.47827164 0 0 Z " fill="#C96B57" transform="translate(65,168)"/>
<path d="M0 0 C0.99 0.33 1.98 0.66 3 1 C3 1.66 3 2.32 3 3 C3.66 3 4.32 3 5 3 C5.33 3.99 5.66 4.98 6 6 C5.34 6 4.68 6 4 6 C4 6.99 4 7.98 4 9 C4.66 9 5.32 9 6 9 C6 10.98 6 12.96 6 15 C1.75 8.625 1.75 8.625 0.875 4.3125 C0.70742187 3.50425781 0.53984375 2.69601563 0.3671875 1.86328125 C0.24601563 1.24839844 0.12484375 0.63351563 0 0 Z " fill="#D16B5A" transform="translate(217,75)"/>
<path d="M0 0 C0.66 0.33 1.32 0.66 2 1 C1.67 1.66 1.34 2.32 1 3 C0.34 3 -0.32 3 -1 3 C-1 3.66 -1 4.32 -1 5 C-2.093125 5.433125 -3.18625 5.86625 -4.3125 6.3125 C-7.09408793 7.49495641 -9.06361939 8.60800043 -11 11 C-11.99 10.67 -12.98 10.34 -14 10 C-12.42040347 8.70376621 -10.83616587 7.41318673 -9.25 6.125 C-8.36828125 5.40570312 -7.4865625 4.68640625 -6.578125 3.9453125 C-4.40469304 2.3053593 -2.54024149 0.96087396 0 0 Z " fill="#C16553" transform="translate(61,21)"/>
<path d="M0 0 C4.95 0.99 4.95 0.99 10 2 C10 2.66 10 3.32 10 4 C6.535 5.485 6.535 5.485 3 7 C0 2.25 0 2.25 0 0 Z " fill="#E26C69" transform="translate(53,212)"/>
<path d="M0 0 C4.6875 0.78125 4.6875 0.78125 9.375 1.5625 C10.674375 1.7790625 10.674375 1.7790625 12 2 C12.33 1.34 12.66 0.68 13 0 C14.32 1.32 15.64 2.64 17 4 C10.10907206 5.46751243 5.95395754 4.78003299 0 1 C0 0.67 0 0.34 0 0 Z " fill="#D36559" transform="translate(70,227)"/>
<path d="M0 0 C0.33 0.66 0.66 1.32 1 2 C1.5775 2.103125 2.155 2.20625 2.75 2.3125 C6.03513837 3.31629228 7.71052302 5.51973328 10 8 C9.67 8.99 9.34 9.98 9 11 C1.51708428 4.84965831 1.51708428 4.84965831 -1 1 C-0.67 0.67 -0.34 0.34 0 0 Z " fill="#C96D5B" transform="translate(35,200)"/>
<path d="M0 0 C3.68854359 0.70933531 6.78223945 2.06934367 10 4 C10.875 6.1875 10.875 6.1875 11 8 C6.40378078 6.5129879 3.53027653 4.20187872 0 1 C0 0.67 0 0.34 0 0 Z " fill="#CE6D5A" transform="translate(45,211)"/>
<path d="M0 0 C0.66 0.33 1.32 0.66 2 1 C1.67 1.99 1.34 2.98 1 4 C0.34 4 -0.32 4 -1 4 C-1 4.66 -1 5.32 -1 6 C-1.66 6 -2.32 6 -3 6 C-3.66 8.31 -4.32 10.62 -5 13 C-6.32 12.67 -7.64 12.34 -9 12 C-7.625 9.5 -7.625 9.5 -6 7 C-5.34 7 -4.68 7 -4 7 C-3.71125 6.401875 -3.4225 5.80375 -3.125 5.1875 C-2 3 -2 3 0 0 Z " fill="#CB7059" transform="translate(209,182)"/>
<path d="M0 0 C0.88558594 0.30357422 0.88558594 0.30357422 1.7890625 0.61328125 C-0.10286225 1.59997884 -1.99965728 2.57734145 -3.8984375 3.55078125 C-4.95417969 4.09605469 -6.00992188 4.64132813 -7.09765625 5.203125 C-9.87327797 6.46033885 -12.21365876 7.17397694 -15.2109375 7.61328125 C-15.2109375 6.95328125 -15.2109375 6.29328125 -15.2109375 5.61328125 C-13.9425 5.24203125 -13.9425 5.24203125 -12.6484375 4.86328125 C-9.92278237 3.87213393 -7.99558423 2.9298588 -5.5859375 1.42578125 C-2.2109375 -0.38671875 -2.2109375 -0.38671875 0 0 Z " fill="#C76A56" transform="translate(126.2109375,173.38671875)"/>
<path d="M0 0 C3.33379823 2.69878904 4.41343292 6.09968925 6 10 C7.68118903 14.26493311 7.68118903 14.26493311 11 17 C10.67 17.66 10.34 18.32 10 19 C3.96698706 13.6133813 1.61870263 7.68883749 0 0 Z " fill="#C76450" transform="translate(64,138)"/>
<path d="M0 0 C1.875 0.25 1.875 0.25 4 1 C5.72101535 3.58152302 6 4.84918025 6 8 C3.625 7.8125 3.625 7.8125 1 7 C-0.375 4.5625 -0.375 4.5625 -1 2 C-0.67 1.34 -0.34 0.68 0 0 Z " fill="#E26866" transform="translate(198,42)"/>
<path d="M0 0 C0.66 0.33 1.32 0.66 2 1 C-0.56428003 5.17882671 -3.01930733 8.12505529 -7 11 C-7.66 10.67 -8.32 10.34 -9 10 C-6.03 6.7 -3.06 3.4 0 0 Z " fill="#CE6550" transform="translate(66,77)"/>
<path d="M0 0 C0 0.66 0 1.32 0 2 C-9.41002278 6.59225513 -9.41002278 6.59225513 -14 6 C-14 5.34 -14 4.68 -14 4 C-13.37351563 3.79503906 -12.74703125 3.59007813 -12.1015625 3.37890625 C-11.28429687 3.10949219 -10.46703125 2.84007813 -9.625 2.5625 C-8.81289062 2.29566406 -8.00078125 2.02882813 -7.1640625 1.75390625 C-2.12953368 0 -2.12953368 0 0 0 Z " fill="#CA6E5A" transform="translate(142,67)"/>
<path d="M0 0 C0.66 0 1.32 0 2 0 C0.45730076 4.72065967 -1.07794619 9.41664092 -3 14 C-3.33 14 -3.66 14 -4 14 C-3.91231752 12.4156683 -3.80412671 10.83246433 -3.6875 9.25 C-3.60048828 7.92742187 -3.60048828 7.92742187 -3.51171875 6.578125 C-2.92970571 3.64584554 -2.04364902 2.1597081 0 0 Z " fill="#C66F5B" transform="translate(22,73)"/>
<path d="M0 0 C0.125 2.875 0.125 2.875 0 6 C-0.66 6.66 -1.32 7.32 -2 8 C-5.125 7.625 -5.125 7.625 -8 7 C-7.360625 6.566875 -6.72125 6.13375 -6.0625 5.6875 C-3.73253997 4.08760823 -3.73253997 4.08760823 -3 1 C-1 0 -1 0 0 0 Z " fill="#C26951" transform="translate(185,74)"/>
<path d="M0 0 C0.33 0 0.66 0 1 0 C2.34588235 7.34117647 2.34588235 7.34117647 0.6875 10.5 C-1 12 -1 12 -3 12 C-2.01 8.04 -1.02 4.08 0 0 Z " fill="#D46A56" transform="translate(136,134)"/>
<path d="M0 0 C0.66 0 1.32 0 2 0 C3.60080151 4.00200378 2.29279692 7.04556236 1 11 C0.67 11 0.34 11 0 11 C-0.19406478 9.35492782 -0.38007935 7.70890406 -0.5625 6.0625 C-0.66691406 5.14597656 -0.77132813 4.22945312 -0.87890625 3.28515625 C-0.91886719 2.53105469 -0.95882813 1.77695313 -1 1 C-0.67 0.67 -0.34 0.34 0 0 Z " fill="#CE6857" transform="translate(6,139)"/>
<path d="M0 0 C3.63559661 3.43361902 6.36113346 6.7973607 9 11 C7.68 11 6.36 11 5 11 C5 9.68 5 8.36 5 7 C3.68 6.67 2.36 6.34 1 6 C0.67 4.02 0.34 2.04 0 0 Z " fill="#CB705B" transform="translate(29,181)"/>
<path d="M0 0 C0.99 0.33 1.98 0.66 3 1 C3.0825 1.78375 3.165 2.5675 3.25 3.375 C3.72806339 6.14749104 3.72806339 6.14749104 6.0625 7.3125 C6.701875 7.539375 7.34125 7.76625 8 8 C6.02 8.33 4.04 8.66 2 9 C2 8.34 2 7.68 2 7 C1.34 7 0.68 7 0 7 C-0.93423645 3.98968256 -1.04449911 3.13349732 0 0 Z " fill="#CE6355" transform="translate(140,157)"/>
<path d="M0 0 C2.3385104 3.50776561 2.77589301 5.81666944 3 10 C2.01 10.99 1.02 11.98 0 13 C0 8.71 0 4.42 0 0 Z " fill="#DA7568" transform="translate(137,114)"/>
<path d="M0 0 C1.20628008 2.33214148 2.1654738 4.49642139 3 7 C-0.75 10.875 -0.75 10.875 -3 12 C-2.68950274 10.56206608 -2.3765224 9.1246682 -2.0625 7.6875 C-1.88847656 6.88699219 -1.71445312 6.08648437 -1.53515625 5.26171875 C-1 3 -1 3 0 0 Z " fill="#CF6859" transform="translate(52,96)"/>
<path d="M0 0 C1.134375 0.020625 2.26875 0.04125 3.4375 0.0625 C-0.3184214 3.49181954 -4.79716745 4.62679083 -9.5625 6.0625 C-3.5625 0.0625 -3.5625 0.0625 0 0 Z " fill="#CB6855" transform="translate(76.5625,21.9375)"/>
<path d="M0 0 C0.66 0 1.32 0 2 0 C2.64757625 1.43671568 3.29299453 2.87440416 3.9375 4.3125 C4.29714844 5.11300781 4.65679687 5.91351563 5.02734375 6.73828125 C6 9 6 9 7 12 C6.01 12.495 6.01 12.495 5 13 C0.59225513 4.738041 0.59225513 4.738041 0 0 Z " fill="#CC6C5B" transform="translate(104,142)"/>
<path d="M0 0 C1.67588141 2.51382212 2.94030311 4.82947288 4.1875 7.5625 C4.55230469 8.34753906 4.91710937 9.13257813 5.29296875 9.94140625 C5.52628906 10.62074219 5.75960937 11.30007812 6 12 C5.67 12.66 5.34 13.32 5 14 C2.64099869 11.85545335 1.08853869 10.01441484 0 7 C-0.0777346 4.66796188 -0.08967728 2.33160941 0 0 Z " fill="#C9634F" transform="translate(119,133)"/>
<path d="M0 0 C1.5625 1.125 1.5625 1.125 3 3 C2.6875 6.1875 2.6875 6.1875 2 9 C1.01 9 0.02 9 -1 9 C-1.33 6.69 -1.66 4.38 -2 2 C-1.34 2 -0.68 2 0 2 C0 1.34 0 0.68 0 0 Z " fill="#E16B6A" transform="translate(223,74)"/>
<path d="M0 0 C0.66 0.33 1.32 0.66 2 1 C2 2.98 2 4.96 2 7 C-0.64 7 -3.28 7 -6 7 C-3 5 -3 5 0 5 C-0.66 3.68 -1.32 2.36 -2 1 C-1.34 0.67 -0.68 0.34 0 0 Z " fill="#D56359" transform="translate(137,231)"/>
<path d="M0 0 C-1.78953185 0.83790789 -3.58169695 1.67019396 -5.375 2.5 C-6.87160156 3.19609375 -6.87160156 3.19609375 -8.3984375 3.90625 C-11 5 -11 5 -13 5 C-13 4.34 -13 3.68 -13 3 C-12.34 3 -11.68 3 -11 3 C-11 2.34 -11 1.68 -11 1 C-3.375 -1.125 -3.375 -1.125 0 0 Z " fill="#C8604D" transform="translate(175,226)"/>
<path d="M0 0 C1.65 0.33 3.3 0.66 5 1 C4.34 2.65 3.68 4.3 3 6 C1.68 6 0.36 6 -1 6 C-0.67 4.02 -0.34 2.04 0 0 Z " fill="#DC6A64" transform="translate(61,217)"/>
<path d="M0 0 C0.86625 0.33 1.7325 0.66 2.625 1 C5.95718275 1.98731341 8.55159538 2.16420974 12 2 C12 2.99 12 3.98 12 5 C7.428721 4.45144652 3.32564205 3.58255197 -1 2 C-0.67 1.34 -0.34 0.68 0 0 Z " fill="#CA6E5B" transform="translate(134,174)"/>
<path d="M0 0 C0.99 0 1.98 0 3 0 C4.8125 2.25 4.8125 2.25 6 5 C5.1875 7.3125 5.1875 7.3125 4 9 C0 2.25 0 2.25 0 0 Z " fill="#CC6E57" transform="translate(209,61)"/>
<path d="M0 0 C0.66 0 1.32 0 2 0 C2.66 3.3 3.32 6.6 4 10 C3.34 10 2.68 10 2 10 C2 8.68 2 7.36 2 6 C1.34 6 0.68 6 0 6 C-0.38218767 4.34385343 -0.71395102 2.67542976 -1 1 C-0.67 0.67 -0.34 0.34 0 0 Z " fill="#C76C5A" transform="translate(13,144)"/>
<path d="M0 0 C-0.66 2.31 -1.32 4.62 -2 7 C-2.99 7 -3.98 7 -5 7 C-5.33 6.01 -5.66 5.02 -6 4 C-2.25 0 -2.25 0 0 0 Z " fill="#D36E5E" transform="translate(151,143)"/>
<path d="M0 0 C0 0.66 0 1.32 0 2 C-1.24176695 2.70226141 -2.49385599 3.38629109 -3.75 4.0625 C-4.79414062 4.63677734 -4.79414062 4.63677734 -5.859375 5.22265625 C-8.36140628 6.1312406 -9.5332355 5.88336837 -12 5 C-10.37750059 4.16180842 -8.75191503 3.3295884 -7.125 2.5 C-6.22007813 2.0359375 -5.31515625 1.571875 -4.3828125 1.09375 C-2 0 -2 0 0 0 Z " fill="#C36956" transform="translate(75,15)"/>
<path d="M0 0 C0 3.99904969 -1.72586967 5.80200422 -4 9 C-4.66 8.34 -5.32 7.68 -6 7 C-4.19587357 3.73539027 -3.16605307 2.11070205 0 0 Z " fill="#CE5C49" transform="translate(216,186)"/>
<path d="M0 0 C2 0 2 0 3.625 1.5 C4.07875 1.995 4.5325 2.49 5 3 C5.33 2.34 5.66 1.68 6 1 C6 2.65 6 4.3 6 6 C4.125 5.8125 4.125 5.8125 2 5 C0.75 2.4375 0.75 2.4375 0 0 Z " fill="#CC6C58" transform="translate(55,156)"/>
<path d="M0 0 C0.66 0.33 1.32 0.66 2 1 C1.01 3.97 0.02 6.94 -1 10 C-1.66 9.67 -2.32 9.34 -3 9 C-2.01 6.03 -1.02 3.06 0 0 Z " fill="#CA614F" transform="translate(9,85)"/>
<path d="M0 0 C2.16874252 0.50603992 3.99967627 0.99983813 6 2 C6 2.99 6 3.98 6 5 C4.68 5.33 3.36 5.66 2 6 C2 5.01 2 4.02 2 3 C1.34 2.67 0.68 2.34 0 2 C0 1.34 0 0.68 0 0 Z " fill="#DA6052" transform="translate(178,22)"/>
<path d="M0 0 C2.97 0.99 5.94 1.98 9 3 C9 3.33 9 3.66 9 4 C3.375 4.25 3.375 4.25 0 2 C0 1.34 0 0.68 0 0 Z " fill="#CC6652" transform="translate(160,13)"/>
<path d="M0 0 C0.99 0.495 0.99 0.495 2 1 C2.40729228 3.32156597 2.74438677 5.6568787 3 8 C2.01 8.33 1.02 8.66 0 9 C0 6.03 0 3.06 0 0 Z " fill="#C76859" transform="translate(177,158)"/>
<path d="M0 0 C2.97 0.99 5.94 1.98 9 3 C8.34 3.66 7.68 4.32 7 5 C4.69 4.01 2.38 3.02 0 2 C0 1.34 0 0.68 0 0 Z " fill="#CA6F58" transform="translate(72,219)"/>
<path d="M0 0 C2.375 -0.1875 2.375 -0.1875 5 0 C5.66 0.99 6.32 1.98 7 3 C4.03 3 1.06 3 -2 3 C-1.34 2.67 -0.68 2.34 0 2 C0 1.34 0 0.68 0 0 Z " fill="#CE6552" transform="translate(149,177)"/>
<path d="M0 0 C0.4125 0.495 0.825 0.99 1.25 1.5 C3.12202338 3.43386092 3.12202338 3.43386092 7 3 C6.67 3.99 6.34 4.98 6 6 C3.13275314 5.42655063 2.1385485 5.1385485 0 3 C0 2.01 0 1.02 0 0 Z " fill="#CB6B5A" transform="translate(125,147)"/>
</svg>
